<?xml version="1.0" encoding="UTF-8"?>
<svg version="1.1" xmlns="http://www.w3.org/2000/svg" width="42" height="42">
<path d="M0 0 C5.20808445 3.12485067 9.13857442 7.39977264 11.4453125 13.0546875 C12.31709863 20.50616472 12.53517125 27.34690813 7.875 33.5078125 C3.95378635 37.7504371 0.06726681 40.74793176 -5.7265625 41.42578125 C-13.34468182 41.56716556 -18.81080553 41.36342689 -24.5546875 36.0546875 C-30.33988468 29.81276423 -31.05969522 24.94343259 -30.9375 16.546875 C-30.25092521 10.2836315 -27.49454318 6.85260252 -22.9921875 2.6796875 C-16.15517964 -1.87831774 -7.88185497 -2.91652737 0 0 Z M-26.5546875 9.6171875 C-29.47327742 14.84096878 -29.41085973 20.24551888 -28.5546875 26.0546875 C-26.79152153 31.47223658 -23.04355717 34.80742008 -18.5546875 38.0546875 C-13.20736194 39.83712935 -6.80085615 40.07825419 -1.38671875 38.37109375 C3.6838853 35.67348762 7.62815059 31.50617323 9.4453125 26.0546875 C10.15088198 19.25098183 10.26321492 13.37700716 6.04296875 7.74609375 C1.39030329 2.82041125 -2.71702125 0.75734364 -9.5546875 0.4296875 C-17.15369309 0.79382648 -22.01120128 3.55498723 -26.5546875 9.6171875 Z " fill="#FFFFFF" transform="translate(30.5546875,0.9453125)"/>
<path d="M0 0 C-0.52162717 4.69464449 -2.12514403 5.12514403 -6 9 C-0.72 9.33 4.56 9.66 10 10 C10 10.99 10 11.98 10 13 C2.08 13.495 2.08 13.495 -6 14 C-4.845 15.11375 -3.69 16.2275 -2.5 17.375 C-0.53125 19.2734375 -0.53125 19.2734375 1 21 C1 21.66 1 22.32 1 23 C-3.01268958 22.45575015 -4.98416846 20.47927799 -7.8125 17.6875 C-8.62332031 16.90761719 -9.43414063 16.12773437 -10.26953125 15.32421875 C-12 13 -12 13 -12.0390625 11.00390625 C-10.61703593 8.26142644 -8.76690183 6.40855028 -6.5625 4.25 C-5.75941406 3.45078125 -4.95632812 2.6515625 -4.12890625 1.828125 C-2 0 -2 0 0 0 Z " fill="#FFFFFF" transform="translate(22,10)"/>
</svg>
